HIERARCHY
ROOT Hips
{
	OFFSET 0.000000 0.000000 0.000000
	CHANNELS 6 Xposition Yposition Zposition Zrotation Yrotation Xrotation 
	JOINT LHipJoint
	{
		OFFSET 0.000000 0.000000 0.000000
		CHANNELS 3 Zrotation Yrotation Xrotation
		JOINT LeftUpLeg
		{
			OFFSET 1.363060 -1.794630 0.839290
			CHANNELS 3 Zrotation Yrotation Xrotation
			JOINT LeftLeg
			{
				OFFSET 2.448110 -6.726130 0.000000
				CHANNELS 3 Zrotation Yrotation Xrotation
				JOINT LeftFoot
				{
					OFFSET 2.562200 -7.039590 0.000000
					CHANNELS 3 Zrotation Yrotation Xrotation
					JOINT LeftToeBase
					{
						OFFSET 0.157640 -0.433110 2.322550
						CHANNELS 3 Zrotation Yrotation Xrotation
						End Site
						{
							OFFSET 0.000000 0.000000 0.000000
						}
					}
				}
			}
		}
	}
	JOINT RHipJoint
	{
		OFFSET 0.000000 0.000000 0.000000
		CHANNELS 3 Zrotation Yrotation Xrotation
		JOINT RightUpLeg
		{
			OFFSET -1.305520 -1.794630 0.839290
			CHANNELS 3 Zrotation Yrotation Xrotation
			JOINT RightLeg
			{
				OFFSET -2.542530 -6.985550 0.000000
				CHANNELS 3 Zrotation Yrotation Xrotation
				JOINT RightFoot
				{
					OFFSET -2.568260 -7.056230 0.000000
					CHANNELS 3 Zrotation Yrotation Xrotation
					JOINT RightToeBase
					{
						OFFSET -0.164730 -0.452590 2.363150
						CHANNELS 3 Zrotation Yrotation Xrotation
						End Site
						{
							OFFSET 0.000000 0.000000 0.000000
						}
					}
				}
			}
		}
	}
}
MOTION
Frames: 33
Frame Time: 0.008333
-9.154316 16.573585 0.873053 -164.343526 89.038690 -147.386565 -11.636114 2.785047 -1.828461 -2.979758 1.453896 -0.623245 -0.695681 2.011237 29.883376 1.236210 7.714975 2.127731 1.137800 -0.000001 -75.531400 8.759462 1.270947 0.986916 1.623819 1.413392 -41.635972 2.166311 -0.929604 13.810440 0.400290 2.114262 14.813735 0.272900 0.000000 -54.529900
-8.970892 16.591467 0.885830 -155.425887 88.696403 -138.474290 -12.097058 2.766572 -1.831192 -2.183353 2.024322 -1.941044 -0.482366 2.189591 32.432805 1.384254 8.610951 3.614040 1.441300 -0.000000 -72.936699 8.456400 1.115636 0.780018 2.546497 1.119636 -41.591285 2.232782 -1.027911 15.256724 0.412828 2.084685 14.203023 0.228000 0.000000 -54.153800
-8.791500 16.611991 0.900536 -151.318437 88.205973 -134.379565 -12.459432 2.697103 -1.859047 -1.435486 2.637382 -3.349115 -0.273351 2.342362 35.068781 1.563185 9.716644 4.923828 1.803000 -0.000000 -69.000900 8.225150 0.963661 0.597325 3.420683 0.788714 -41.445500 2.297730 -1.115239 16.555297 0.401922 1.950251 13.304433 0.140400 0.000000 -53.926500
-8.616191 16.634875 0.917519 -149.682193 87.669168 -132.754695 -12.746393 2.600789 -1.905364 -0.777070 3.286630 -4.842863 -0.088150 2.482364 37.745848 1.768127 11.026020 5.966551 2.216500 -0.000000 -63.892600 8.051435 0.829997 0.434357 4.215117 0.457205 -41.196861 2.356893 -1.182409 17.682508 0.371166 1.720237 12.213127 0.019901 0.000000 -53.805500
-8.445046 16.659928 0.937255 -149.542499 87.126275 -132.621768 -12.963418 2.487576 -1.967337 -0.248344 3.947624 -6.402104 0.067195 2.615045 40.413846 1.991956 12.517251 6.682269 2.666700 0.000000 -57.991599 7.930276 0.719227 0.291976 4.895536 0.139529 -40.850825 2.405859 -1.227826 18.625839 0.322914 1.416662 11.018563 -0.116600 0.000000 -53.744400
-8.277749 16.687001 0.959274 -150.262694 86.585993 -133.334037 -13.123839 2.361827 -2.039118 0.149218 4.600781 -8.024660 0.194106 2.743759 43.033621 2.225593 14.133996 7.048973 3.123500 -0.000000 -51.843800 7.848877 0.626141 0.175600 5.459441 -0.140721 -40.417328 2.444403 -1.249637 19.362173 0.258349 1.043228 9.811847 -0.261500 0.000000 -53.695600
-8.114215 16.716005 0.983636 -151.651717 86.060313 -134.700518 -13.224183 2.230806 -2.117901 0.384224 5.212749 -9.682598 0.296362 2.869463 45.555889 2.462546 15.825916 7.090045 3.559300 -0.000000 -46.030100 7.811050 0.553918 0.082994 5.887717 -0.390060 -39.910690 2.469734 -1.251648 19.900116 0.181683 0.630045 8.660733 -0.400600 0.000000 -53.628100
-7.954119 16.746939 1.009627 -153.484381 85.547634 -136.491067 -13.273031 2.098422 -2.197686 0.457691 5.760917 -11.368693 0.379573 2.991746 47.951275 2.695224 17.519443 6.845261 3.940300 -0.000000 -40.972000 7.810022 0.498575 0.014117 6.188015 -0.606836 -39.346611 2.482561 -1.235976 20.241020 0.096358 0.188308 7.623212 -0.530700 -0.000000 -53.524000
-7.797224 16.779753 1.036577 -155.650374 85.046620 -138.596331 -13.275132 1.968698 -2.275156 0.365748 6.227210 -13.067969 0.448424 3.108925 50.194944 2.916305 19.141451 6.358339 4.235600 0.000000 -36.849001 7.843243 0.458515 -0.035431 6.365448 -0.803469 -38.738333 2.483296 -1.206581 20.400787 0.006748 -0.263890 6.733929 -0.648800 0.000000 -53.384499
-7.643158 16.814438 1.063557 -158.020893 84.551204 -140.887142 -13.240221 1.843772 -2.345808 0.120531 6.603375 -14.775229 0.506558 3.218912 52.272101 3.118173 20.617411 5.670436 4.418000 -0.000000 -33.636600 7.903338 0.429215 -0.069014 6.438003 -0.990190 -38.098151 2.474102 -1.166224 20.394014 -0.083712 -0.717642 6.011331 -0.757000 0.000000 -53.226600
-7.491905 16.851006 1.089771 -160.496607 84.062238 -143.276915 -13.175496 1.725092 -2.411686 -0.265768 6.894965 -16.461933 0.555883 3.319253 54.156383 3.294273 21.886571 4.841245 4.477700 0.000000 -31.339600 7.985311 0.408489 -0.096294 6.420531 -1.184785 -37.420185 2.456771 -1.118456 20.241684 -0.171190 -1.157086 5.455082 -0.855200 -0.000001 -53.083900
-7.342798 16.889024 1.114235 -162.992798 83.562664 -145.664316 -13.091039 1.611983 -2.461187 -0.772515 7.090144 -18.159905 0.597877 3.407530 55.857257 3.439720 22.904186 3.890410 4.405300 0.000001 -29.553700 8.079927 0.390659 -0.114350 6.339969 -1.396724 -36.738988 2.435540 -1.064550 19.966232 -0.254617 -1.583406 5.047238 -0.948200 -0.000001 -52.961400
-7.196204 16.928601 1.136425 -165.405514 83.065123 -147.977268 -12.992954 1.504477 -2.506064 -1.376064 7.220577 -19.807141 0.631170 3.482540 57.332182 3.550175 23.640144 2.901560 4.225900 0.000000 -28.406300 8.182492 0.375330 -0.139906 6.212295 -1.642376 -36.014649 2.412095 -1.007274 19.585667 -0.330738 -1.978428 4.767734 -1.033400 -0.000001 -52.907799
-7.051875 16.969399 1.155774 -167.663566 82.565607 -150.144960 -12.888190 1.401362 -2.543415 -2.050567 7.295682 -21.404177 0.654870 3.543213 58.574531 3.624261 24.089277 1.922477 3.965900 0.000001 -27.735800 8.286130 0.359372 -0.175409 6.060560 -1.928093 -35.252217 2.389821 -0.947280 19.117874 -0.398833 -2.339756 4.588321 -1.111700 0.000000 -52.933100
-6.909691 17.011100 1.171975 -169.711886 82.066677 -152.119871 -12.781307 1.301593 -2.575099 -2.771266 7.334218 -22.936988 0.667391 3.589322 59.572026 3.662517 24.264913 1.001422 3.659900 0.000000 -27.455800 8.386141 0.341066 -0.225388 5.902864 -2.257761 -34.443799 2.371215 -0.885236 18.577902 -0.457986 -2.661767 4.481952 -1.182200 0.000000 -53.045100
-6.769546 17.053343 1.185004 -171.519147 81.572188 -153.877528 -12.675053 1.204334 -2.603270 -3.516226 7.356230 -24.393903 0.667212 3.621095 60.316242 3.667921 24.198981 0.174915 3.341301 -0.000000 -27.478600 8.479456 0.319107 -0.292235 5.753058 -2.630861 -33.582467 2.357997 -0.821507 17.977716 -0.507636 -2.940554 4.426116 -1.243600 0.000000 -53.241701
-6.631355 17.095710 1.194932 -173.072578 81.086038 -155.409107 -12.570784 1.108654 -2.630453 -4.268471 7.380928 -25.768335 0.653066 3.639213 60.805334 3.645680 23.937199 -0.541661 3.034500 -0.000000 -27.677100 8.564249 0.292587 -0.376307 5.620259 -3.042830 -32.665466 2.351220 -0.756406 17.327342 -0.547413 -3.173026 4.403470 -1.294700 -0.000000 -53.510800
-6.494863 17.137744 1.202084 -174.388774 80.612526 -156.732011 -12.468081 1.014432 -2.657852 -5.018170 7.422951 -27.057520 0.624179 3.644065 61.041595 3.603016 23.536128 -1.147123 2.755700 -0.000000 -27.941700 8.640682 0.260896 -0.475433 5.507647 -3.487656 -31.694684 2.350983 -0.690248 16.635042 -0.577017 -3.356602 4.404145 -1.334500 -0.000000 -53.834500
-6.359724 17.179098 1.206745 -175.481467 80.155554 -157.858067 -12.366583 0.921611 -2.685588 -5.757999 7.495073 -28.264725 0.580228 3.636186 61.031473 3.548177 23.055423 -1.650503 2.513100 0.000000 -28.198799 8.708824 0.223107 -0.585072 5.417153 -3.955559 -30.676830 2.357121 -0.622902 15.904923 -0.596372 -3.491135 4.426067 -1.363200 -0.000000 -54.190801
-6.226115 17.219054 1.209344 -176.393971 79.717729 -158.829436 -12.264030 0.829856 -2.717308 -6.489415 7.601199 -29.388064 0.520358 3.616883 60.791926 3.487890 22.539106 -2.114482 2.289700 0.000000 -28.200300 8.770705 0.180513 -0.703445 5.340496 -4.436881 -29.618118 2.367915 -0.555758 15.148473 -0.606146 -3.577388 4.463790 -1.380500 -0.000000 -54.548800
-6.093277 17.257435 1.210124 -177.142688 79.302212 -159.653252 -12.159938 0.740178 -2.748290 -7.209720 7.743530 -30.441507 0.445111 3.585960 60.331785 3.429581 22.035255 -2.543611 2.089900 0.000000 -28.047200 8.826655 0.131661 -0.822201 5.279023 -4.920165 -28.535416 2.382998 -0.487941 14.364947 -0.606606 -3.618731 4.525698 -1.388300 -0.000000 -54.889400
-5.961106 17.293860 1.209338 -177.758691 78.910800 -160.355327 -12.052781 0.652963 -2.777854 -7.920645 7.916672 -31.430001 0.354405 3.544025 59.666920 3.377452 21.566744 -2.982001 1.899700 -0.000000 -27.691201 8.878094 0.077322 -0.937497 5.226651 -5.395597 -27.440753 2.400891 -0.420022 13.560831 -0.598863 -3.619974 4.613294 -1.388001 0.000000 -55.192000
-5.829317 17.327977 1.207053 -178.259143 78.544510 -160.943767 -11.941867 0.568404 -2.803331 -8.621009 8.112072 -32.365239 0.248203 3.491660 58.813211 3.333572 21.140349 -3.463801 1.707100 -0.000000 -27.116000 8.925361 0.017867 -1.044958 5.181716 -5.852901 -26.349907 2.420707 -0.352085 12.741902 -0.584374 -3.588445 4.727064 -1.381699 0.000000 -55.441400
-5.697731 17.359622 1.203359 -178.661717 78.203437 -161.431915 -11.826757 0.487062 -2.821812 -9.308639 8.319057 -33.251157 0.127127 3.428746 57.780633 3.298285 20.752912 -3.996312 1.508800 0.000000 -26.432401 8.969033 -0.046074 -1.141936 5.141916 -6.285283 -25.272022 2.441408 -0.284216 11.912628 -0.564746 -3.532370 4.866930 -1.371500 -0.000000 -55.638000
-5.566162 17.388612 1.198117 -178.971658 77.886432 -161.817392 -11.707717 0.408612 -2.830117 -9.978402 8.525400 -34.097381 -0.008333 3.355470 56.580968 3.270040 20.387809 -4.585987 1.300400 0.000000 -25.668399 9.008611 -0.113823 -1.226596 5.108694 -6.686002 -24.219144 2.462565 -0.216425 11.079846 -0.541899 -3.461495 5.027767 -1.359400 0.000000 -55.785900
-5.434568 17.414918 1.191322 -179.196679 77.591093 -162.106511 -11.585318 0.333016 -2.825631 -10.624338 8.720222 -34.904492 -0.156870 3.271355 55.219267 3.246371 20.026698 -5.211527 1.087701 0.000000 -24.936900 9.043997 -0.184521 -1.299131 5.082095 -7.052477 -23.194485 2.483511 -0.148888 10.249800 -0.517648 -3.385183 5.203746 -1.347400 0.000000 -55.904800
-5.302820 17.438393 1.182745 -179.338110 77.313409 -162.296125 -11.460547 0.259418 -2.806072 -11.239654 8.892916 -35.677163 -0.316963 3.176085 53.701680 3.224320 19.649821 -5.848949 0.877400 -0.000000 -24.281799 9.074418 -0.257223 -1.360612 5.064859 -7.383114 -22.203975 2.504153 -0.081888 9.431642 -0.493743 -3.312029 5.384544 -1.336800 0.000000 -56.014200
-5.171010 17.459058 1.172355 -179.402358 77.048543 -162.394791 -11.334643 0.187588 -2.769788 -11.818098 9.035513 -36.411145 -0.486161 3.068823 52.029062 3.200979 19.243939 -6.455431 0.683501 0.000000 -23.801500 9.099719 -0.331006 -1.413405 5.057282 -7.679974 -21.245248 2.524004 -0.015932 8.633853 -0.471619 -3.249268 5.561277 -1.329000 -0.000000 -56.144800
-5.039113 17.476800 1.160023 -179.394673 76.790348 -162.407669 -11.208912 0.116874 -2.715907 -12.354955 9.141493 -37.104235 -0.662001 2.948846 50.203189 3.173984 18.801348 -6.995523 0.517500 -0.000000 -23.515800 9.119546 -0.404855 -1.460536 5.060606 -7.946712 -20.318422 2.542999 0.048216 7.867706 -0.452339 -3.201367 5.722392 -1.324300 0.000000 -56.317300
-4.907233 17.491539 1.145671 -179.322060 76.532367 -162.345458 -11.084814 0.047042 -2.644279 -12.847183 9.206731 -37.749441 -0.841669 2.815283 48.224682 3.141600 18.321750 -7.434529 0.390200 -0.000000 -23.446400 9.133891 -0.477929 -1.505653 5.074670 -8.189334 -19.419446 2.560939 0.109571 7.144007 -0.436562 -3.170662 5.858585 -1.322599 0.000000 -56.551800
-4.775395 17.503161 1.129256 -179.193375 76.268695 -162.219917 -10.963727 -0.022140 -2.555478 -13.293010 9.228824 -38.338968 -1.022649 2.667270 46.095215 3.102946 17.810305 -7.751043 0.307500 -0.000000 -23.574100 9.142866 -0.549466 -1.552576 5.099196 -8.414755 -18.544410 2.577770 0.167088 6.473346 -0.424634 -3.157392 5.960916 -1.323300 0.000000 -56.857400
-4.643701 17.511536 1.110718 -179.017200 75.993644 -162.044658 -10.846892 -0.090687 -2.450326 -13.692813 9.206485 -38.864358 -1.202799 2.503921 43.818429 3.057964 17.275883 -7.938613 0.269300 -0.000000 -23.854500 9.146704 -0.618917 -1.604976 5.133561 -8.631074 -17.688648 2.593543 0.219723 5.865303 -0.416504 -3.159519 6.022124 -1.325300 -0.000000 -57.232700
-4.512185 17.516482 1.089983 -178.798377 75.703484 -161.828860 -10.735620 -0.158800 -2.330068 -14.046324 9.140573 -39.317437 -1.380565 2.324396 41.400401 3.006915 16.726800 -8.005549 0.270300 0.000001 -24.232000 9.145429 -0.686161 -1.665970 5.178025 -8.844891 -16.846372 2.608361 0.266754 5.325876 -0.412197 -3.176091 6.037689 -1.328000 -0.000000 -57.667700
